<mxfile host="app.diagrams.net" modified="2023-09-12T20:39:10.149Z" agent="Mozilla/5.0 (X11; Linux x86_64; rv:109.0) Gecko/20100101 Firefox/116.0" etag="yiUm0dR1bvhUkTXiKuXN" version="21.7.4" type="device">
  <diagram id="C5RBs43oDa-KdzZeNtuy" name="Page-1">
    <mxGraphModel dx="6636" dy="6372" grid="1" gridSize="10" guides="1" tooltips="1" connect="1" arrows="1" fold="1" page="1" pageScale="1" pageWidth="900" pageHeight="1600" math="0" shadow="0">
      <root>
        <mxCell id="WIyWlLk6GJQsqaUBKTNV-0" />
        <mxCell id="WIyWlLk6GJQsqaUBKTNV-1" parent="WIyWlLk6GJQsqaUBKTNV-0" />
        <mxCell id="zVp6rDQHLnVt3jqaxe6N-5" value="" style="group" vertex="1" connectable="0" parent="WIyWlLk6GJQsqaUBKTNV-1">
          <mxGeometry x="-110" y="-1680" width="2730" height="2970" as="geometry" />
        </mxCell>
        <mxCell id="zVp6rDQHLnVt3jqaxe6N-1" value="" style="shape=folder;fontStyle=1;spacingTop=10;tabWidth=100;tabHeight=30;tabPosition=left;html=1;whiteSpace=wrap;" vertex="1" parent="zVp6rDQHLnVt3jqaxe6N-5">
          <mxGeometry width="2010" height="2660" as="geometry" />
        </mxCell>
        <mxCell id="zVp6rDQHLnVt3jqaxe6N-3" value="biblioteca" style="text;html=1;align=center;verticalAlign=middle;resizable=0;points=[];autosize=1;strokeColor=none;fillColor=none;container=1;" vertex="1" parent="zVp6rDQHLnVt3jqaxe6N-5">
          <mxGeometry x="30.00044776119404" width="70" height="30" as="geometry" />
        </mxCell>
        <mxCell id="zVp6rDQHLnVt3jqaxe6N-6" value="" style="group" vertex="1" connectable="0" parent="zVp6rDQHLnVt3jqaxe6N-5">
          <mxGeometry x="50" y="90" width="830" height="630" as="geometry" />
        </mxCell>
        <mxCell id="zVp6rDQHLnVt3jqaxe6N-7" value="" style="shape=folder;fontStyle=1;spacingTop=10;tabWidth=100;tabHeight=30;tabPosition=left;html=1;whiteSpace=wrap;" vertex="1" parent="zVp6rDQHLnVt3jqaxe6N-6">
          <mxGeometry width="830" height="490" as="geometry" />
        </mxCell>
        <mxCell id="zVp6rDQHLnVt3jqaxe6N-8" value="views" style="text;html=1;align=center;verticalAlign=middle;resizable=0;points=[];autosize=1;strokeColor=none;fillColor=none;container=1;" vertex="1" parent="zVp6rDQHLnVt3jqaxe6N-6">
          <mxGeometry x="19.99711099674044" width="50" height="30" as="geometry" />
        </mxCell>
        <mxCell id="zVp6rDQHLnVt3jqaxe6N-19" value="" style="group" vertex="1" connectable="0" parent="zVp6rDQHLnVt3jqaxe6N-6">
          <mxGeometry x="20" y="50" width="350" height="130" as="geometry" />
        </mxCell>
        <mxCell id="zVp6rDQHLnVt3jqaxe6N-15" value="&lt;div align=&quot;center&quot;&gt;&lt;br&gt;&lt;/div&gt;&lt;div align=&quot;center&quot;&gt;&amp;lt;&amp;lt;interface&amp;gt;&amp;gt;&lt;/div&gt;&lt;div align=&quot;center&quot;&gt;BibliotecaView&lt;/div&gt;&lt;p style=&quot;margin:0px;margin-top:4px;text-align:center;&quot;&gt;&lt;/p&gt;&lt;hr size=&quot;1&quot;&gt;" style="verticalAlign=top;align=left;overflow=fill;fontSize=12;fontFamily=Helvetica;html=1;whiteSpace=wrap;" vertex="1" parent="zVp6rDQHLnVt3jqaxe6N-19">
          <mxGeometry width="350" height="130" as="geometry" />
        </mxCell>
        <mxCell id="zVp6rDQHLnVt3jqaxe6N-16" value="&lt;span data-lucid-type=&quot;application/vnd.lucid.text&quot; data-lucid-content=&quot;{&amp;quot;t&amp;quot;:&amp;quot;+ mostrarItensDisponiveis(List&lt;ItemMultimidia&gt; itens: void\n+ mostrarEmprestimoStatus(boolean sucesso): void\n+ mostrarDevolucaoStatus(boolean sucesso): void&amp;quot;,&amp;quot;m&amp;quot;:[{&amp;quot;s&amp;quot;:0,&amp;quot;n&amp;quot;:&amp;quot;c&amp;quot;,&amp;quot;v&amp;quot;:&amp;quot;333333ff&amp;quot;,&amp;quot;e&amp;quot;:155}]}&quot;&gt;&lt;span style=&quot;color:#333333;&quot;&gt;mostrarItensDisponiveis(List&amp;lt;ItemMultimidia&amp;gt; itens: void&lt;br&gt;&lt;/span&gt;&lt;span style=&quot;color:#333333;&quot;&gt;mostrarEmprestimoStatus(boolean sucesso): void&lt;br&gt;&lt;/span&gt;&lt;span style=&quot;color:#333333;&quot;&gt;mostrarDevolucaoStatus(boolean sucesso): void&lt;/span&gt;&lt;/span&gt;" style="text;whiteSpace=wrap;html=1;" vertex="1" parent="zVp6rDQHLnVt3jqaxe6N-19">
          <mxGeometry y="60" width="340" height="70" as="geometry" />
        </mxCell>
        <mxCell id="zVp6rDQHLnVt3jqaxe6N-29" style="edgeStyle=orthogonalEdgeStyle;rounded=0;orthogonalLoop=1;jettySize=auto;html=1;entryX=0.5;entryY=1;entryDx=0;entryDy=0;dashed=1;dashPattern=12 12;endArrow=block;endFill=0;" edge="1" parent="zVp6rDQHLnVt3jqaxe6N-6" source="zVp6rDQHLnVt3jqaxe6N-69" target="zVp6rDQHLnVt3jqaxe6N-16">
          <mxGeometry relative="1" as="geometry">
            <mxPoint x="214.9999999999999" y="330" as="sourcePoint" />
          </mxGeometry>
        </mxCell>
        <mxCell id="zVp6rDQHLnVt3jqaxe6N-30" value="" style="group" vertex="1" connectable="0" parent="zVp6rDQHLnVt3jqaxe6N-6">
          <mxGeometry x="455" y="50" width="350" height="130" as="geometry" />
        </mxCell>
        <mxCell id="zVp6rDQHLnVt3jqaxe6N-31" value="&lt;div align=&quot;center&quot;&gt;&lt;br&gt;&lt;/div&gt;&lt;div align=&quot;center&quot;&gt;&amp;lt;&amp;lt;interface&amp;gt;&amp;gt;&lt;/div&gt;&lt;div align=&quot;center&quot;&gt;MembroView&lt;/div&gt;&lt;p style=&quot;margin:0px;margin-top:4px;text-align:center;&quot;&gt;&lt;/p&gt;&lt;hr size=&quot;1&quot;&gt;" style="verticalAlign=top;align=left;overflow=fill;fontSize=12;fontFamily=Helvetica;html=1;whiteSpace=wrap;" vertex="1" parent="zVp6rDQHLnVt3jqaxe6N-30">
          <mxGeometry width="350" height="130" as="geometry" />
        </mxCell>
        <mxCell id="zVp6rDQHLnVt3jqaxe6N-32" value="&lt;div&gt;&lt;span style=&quot;color:#333333;&quot;&gt;mostrarListaMembros(List&amp;lt;Membro&amp;gt; membros): void&lt;/span&gt;&lt;/div&gt;&lt;div&gt;&lt;span style=&quot;color:#333333;&quot;&gt;mostrarDetalhesMembro(Membro membro): void&lt;br&gt;&lt;/span&gt;&lt;/div&gt;&lt;div&gt;&lt;span style=&quot;color:#333333;&quot;&gt;&lt;/span&gt;&lt;span data-lucid-content=&quot;{&amp;quot;t&amp;quot;:&amp;quot;mostrarListaMembros(List&lt;Membro&gt; membros): void\nmostrarDetalhesMembro(Membro membro): void&amp;quot;,&amp;quot;m&amp;quot;:[{&amp;quot;s&amp;quot;:0,&amp;quot;n&amp;quot;:&amp;quot;c&amp;quot;,&amp;quot;v&amp;quot;:&amp;quot;333333ff&amp;quot;,&amp;quot;e&amp;quot;:90}]}&quot; data-lucid-type=&quot;application/vnd.lucid.text&quot;&gt;&lt;/span&gt;&lt;/div&gt;" style="text;whiteSpace=wrap;html=1;" vertex="1" parent="zVp6rDQHLnVt3jqaxe6N-30">
          <mxGeometry x="10" y="60" width="330" height="60" as="geometry" />
        </mxCell>
        <mxCell id="zVp6rDQHLnVt3jqaxe6N-36" style="edgeStyle=orthogonalEdgeStyle;rounded=0;orthogonalLoop=1;jettySize=auto;html=1;entryX=0.5;entryY=1;entryDx=0;entryDy=0;dashed=1;dashPattern=12 12;endArrow=block;endFill=0;exitX=0.5;exitY=0;exitDx=0;exitDy=0;" edge="1" parent="zVp6rDQHLnVt3jqaxe6N-6" source="zVp6rDQHLnVt3jqaxe6N-74" target="zVp6rDQHLnVt3jqaxe6N-32">
          <mxGeometry relative="1" as="geometry">
            <mxPoint x="630" y="270" as="sourcePoint" />
          </mxGeometry>
        </mxCell>
        <mxCell id="zVp6rDQHLnVt3jqaxe6N-33" value="" style="group" vertex="1" connectable="0" parent="zVp6rDQHLnVt3jqaxe6N-6">
          <mxGeometry x="455" y="270" width="350" height="130" as="geometry" />
        </mxCell>
        <mxCell id="zVp6rDQHLnVt3jqaxe6N-69" value="BibliotecaViewImpl" style="swimlane;fontStyle=1;align=center;verticalAlign=top;childLayout=stackLayout;horizontal=1;startSize=26;horizontalStack=0;resizeParent=1;resizeParentMax=0;resizeLast=0;collapsible=1;marginBottom=0;whiteSpace=wrap;html=1;" vertex="1" parent="zVp6rDQHLnVt3jqaxe6N-6">
          <mxGeometry x="15" y="260" width="350" height="120" as="geometry" />
        </mxCell>
        <mxCell id="zVp6rDQHLnVt3jqaxe6N-70" value="+ bibliotecaController: BiblitoecaController" style="text;strokeColor=none;fillColor=none;align=left;verticalAlign=top;spacingLeft=4;spacingRight=4;overflow=hidden;rotatable=0;points=[[0,0.5],[1,0.5]];portConstraint=eastwest;whiteSpace=wrap;html=1;" vertex="1" parent="zVp6rDQHLnVt3jqaxe6N-69">
          <mxGeometry y="26" width="350" height="26" as="geometry" />
        </mxCell>
        <mxCell id="zVp6rDQHLnVt3jqaxe6N-71" value="" style="line;strokeWidth=1;fillColor=none;align=left;verticalAlign=middle;spacingTop=-1;spacingLeft=3;spacingRight=3;rotatable=0;labelPosition=right;points=[];portConstraint=eastwest;strokeColor=inherit;" vertex="1" parent="zVp6rDQHLnVt3jqaxe6N-69">
          <mxGeometry y="52" width="350" height="8" as="geometry" />
        </mxCell>
        <mxCell id="zVp6rDQHLnVt3jqaxe6N-72" value="+ &lt;span style=&quot;color:#333333;&quot;&gt;+ mostrarEmprestimoStatus(boolean sucesso): void&lt;br&gt;&lt;/span&gt;&lt;span style=&quot;color:#333333;&quot;&gt;mostrarItensDisponiveis(List&amp;lt;ItemMultimidia&amp;gt; itens: void&lt;br&gt;&lt;/span&gt;&lt;span data-lucid-type=&quot;application/vnd.lucid.text&quot; data-lucid-content=&quot;{&amp;quot;t&amp;quot;:&amp;quot;+ mostrarItensDisponiveis(List&lt;ItemMultimidia&gt; itens: void\n+ mostrarEmprestimoStatus(boolean sucesso): void\n+ mostrarDevolucaoStatus(boolean sucesso): void&amp;quot;,&amp;quot;m&amp;quot;:[{&amp;quot;s&amp;quot;:0,&amp;quot;n&amp;quot;:&amp;quot;c&amp;quot;,&amp;quot;v&amp;quot;:&amp;quot;333333ff&amp;quot;,&amp;quot;e&amp;quot;:155}]}&quot;&gt;&lt;/span&gt;" style="text;strokeColor=none;fillColor=none;align=left;verticalAlign=top;spacingLeft=4;spacingRight=4;overflow=hidden;rotatable=0;points=[[0,0.5],[1,0.5]];portConstraint=eastwest;whiteSpace=wrap;html=1;" vertex="1" parent="zVp6rDQHLnVt3jqaxe6N-69">
          <mxGeometry y="60" width="350" height="60" as="geometry" />
        </mxCell>
        <mxCell id="zVp6rDQHLnVt3jqaxe6N-74" value="MembroViewImpl" style="swimlane;fontStyle=1;align=center;verticalAlign=top;childLayout=stackLayout;horizontal=1;startSize=26;horizontalStack=0;resizeParent=1;resizeParentMax=0;resizeLast=0;collapsible=1;marginBottom=0;whiteSpace=wrap;html=1;" vertex="1" parent="zVp6rDQHLnVt3jqaxe6N-6">
          <mxGeometry x="455" y="280" width="350" height="120" as="geometry" />
        </mxCell>
        <mxCell id="zVp6rDQHLnVt3jqaxe6N-75" value="- membroController: MembroController" style="text;strokeColor=none;fillColor=none;align=left;verticalAlign=top;spacingLeft=4;spacingRight=4;overflow=hidden;rotatable=0;points=[[0,0.5],[1,0.5]];portConstraint=eastwest;whiteSpace=wrap;html=1;" vertex="1" parent="zVp6rDQHLnVt3jqaxe6N-74">
          <mxGeometry y="26" width="350" height="26" as="geometry" />
        </mxCell>
        <mxCell id="zVp6rDQHLnVt3jqaxe6N-76" value="" style="line;strokeWidth=1;fillColor=none;align=left;verticalAlign=middle;spacingTop=-1;spacingLeft=3;spacingRight=3;rotatable=0;labelPosition=right;points=[];portConstraint=eastwest;strokeColor=inherit;" vertex="1" parent="zVp6rDQHLnVt3jqaxe6N-74">
          <mxGeometry y="52" width="350" height="8" as="geometry" />
        </mxCell>
        <mxCell id="zVp6rDQHLnVt3jqaxe6N-77" value="&lt;div&gt;+ mostrarListaMembros(List&amp;lt;Membro&amp;gt; membros): void&lt;/div&gt;&lt;div&gt;&lt;span style=&quot;color:#333333;&quot;&gt;+ mostrarDetalhesMembro(Membro membro): void&lt;br&gt;&lt;/span&gt;&lt;/div&gt;&lt;div&gt;&lt;span style=&quot;color:#333333;&quot;&gt;&lt;/span&gt;&lt;span data-lucid-content=&quot;{&amp;quot;t&amp;quot;:&amp;quot;mostrarListaMembros(List&lt;Membro&gt; membros): void\nmostrarDetalhesMembro(Membro membro): void&amp;quot;,&amp;quot;m&amp;quot;:[{&amp;quot;s&amp;quot;:0,&amp;quot;n&amp;quot;:&amp;quot;c&amp;quot;,&amp;quot;v&amp;quot;:&amp;quot;333333ff&amp;quot;,&amp;quot;e&amp;quot;:90}]}&quot; data-lucid-type=&quot;application/vnd.lucid.text&quot;&gt;&lt;br&gt;&lt;/span&gt;&lt;/div&gt;" style="text;strokeColor=none;fillColor=none;align=left;verticalAlign=top;spacingLeft=4;spacingRight=4;overflow=hidden;rotatable=0;points=[[0,0.5],[1,0.5]];portConstraint=eastwest;whiteSpace=wrap;html=1;" vertex="1" parent="zVp6rDQHLnVt3jqaxe6N-74">
          <mxGeometry y="60" width="350" height="60" as="geometry" />
        </mxCell>
        <mxCell id="zVp6rDQHLnVt3jqaxe6N-64" value="" style="group" vertex="1" connectable="0" parent="zVp6rDQHLnVt3jqaxe6N-5">
          <mxGeometry x="50" y="640" width="1620" height="490" as="geometry" />
        </mxCell>
        <mxCell id="zVp6rDQHLnVt3jqaxe6N-60" value="" style="shape=folder;fontStyle=1;spacingTop=10;tabWidth=140;tabHeight=30;tabPosition=left;html=1;whiteSpace=wrap;" vertex="1" parent="zVp6rDQHLnVt3jqaxe6N-64">
          <mxGeometry width="1620" height="490" as="geometry" />
        </mxCell>
        <mxCell id="zVp6rDQHLnVt3jqaxe6N-62" value="controllers" style="text;html=1;strokeColor=none;fillColor=none;align=center;verticalAlign=middle;whiteSpace=wrap;rounded=0;" vertex="1" parent="zVp6rDQHLnVt3jqaxe6N-64">
          <mxGeometry x="40" width="60" height="30" as="geometry" />
        </mxCell>
        <mxCell id="zVp6rDQHLnVt3jqaxe6N-65" value="" style="group" vertex="1" connectable="0" parent="zVp6rDQHLnVt3jqaxe6N-64">
          <mxGeometry x="30" y="50" width="380" height="130" as="geometry" />
        </mxCell>
        <mxCell id="zVp6rDQHLnVt3jqaxe6N-68" value="" style="group" vertex="1" connectable="0" parent="zVp6rDQHLnVt3jqaxe6N-65">
          <mxGeometry width="380" height="130" as="geometry" />
        </mxCell>
        <mxCell id="zVp6rDQHLnVt3jqaxe6N-66" value="&lt;div align=&quot;center&quot;&gt;&lt;br&gt;&lt;/div&gt;&lt;div align=&quot;center&quot;&gt;&amp;lt;&amp;lt;interface&amp;gt;&amp;gt;&lt;/div&gt;&lt;div align=&quot;center&quot;&gt;BibliotecaController&lt;/div&gt;&lt;p style=&quot;margin:0px;margin-top:4px;text-align:center;&quot;&gt;&lt;/p&gt;&lt;hr size=&quot;1&quot;&gt;" style="verticalAlign=top;align=left;overflow=fill;fontSize=12;fontFamily=Helvetica;html=1;whiteSpace=wrap;" vertex="1" parent="zVp6rDQHLnVt3jqaxe6N-68">
          <mxGeometry width="380" height="130" as="geometry" />
        </mxCell>
        <mxCell id="zVp6rDQHLnVt3jqaxe6N-63" value="&lt;span data-lucid-type=&quot;application/vnd.lucid.text&quot; data-lucid-content=&quot;{&amp;quot;t&amp;quot;:&amp;quot;consultarItensDisponiveis(): List&lt;ItemMultimidia&gt;\nemprestarItem(Membro membro, ItemMultimidia item): boolean\ndevolverItem(Membro membro, ItemMultimidia item): boolean&amp;quot;,&amp;quot;m&amp;quot;:[{&amp;quot;s&amp;quot;:0,&amp;quot;n&amp;quot;:&amp;quot;c&amp;quot;,&amp;quot;v&amp;quot;:&amp;quot;333333ff&amp;quot;,&amp;quot;e&amp;quot;:166}]}&quot;&gt;&lt;span style=&quot;color:#333333;&quot;&gt;consultarItensDisponiveis(): List&amp;lt;ItemMultimidia&amp;gt;&lt;br&gt;&lt;/span&gt;&lt;span style=&quot;color:#333333;&quot;&gt;emprestarItem(Membro membro, ItemMultimidia item): boolean&lt;br&gt;&lt;/span&gt;&lt;span style=&quot;color:#333333;&quot;&gt;devolverItem(Membro membro, ItemMultimidia item): boolean&lt;/span&gt;&lt;/span&gt;" style="text;whiteSpace=wrap;html=1;" vertex="1" parent="zVp6rDQHLnVt3jqaxe6N-68">
          <mxGeometry x="5" y="50" width="370" height="70" as="geometry" />
        </mxCell>
        <mxCell id="zVp6rDQHLnVt3jqaxe6N-83" style="edgeStyle=orthogonalEdgeStyle;rounded=0;orthogonalLoop=1;jettySize=auto;html=1;exitX=0.5;exitY=0;exitDx=0;exitDy=0;entryX=0.5;entryY=1;entryDx=0;entryDy=0;dashed=1;dashPattern=12 12;endArrow=block;endFill=0;" edge="1" parent="zVp6rDQHLnVt3jqaxe6N-64" source="zVp6rDQHLnVt3jqaxe6N-78" target="zVp6rDQHLnVt3jqaxe6N-66">
          <mxGeometry relative="1" as="geometry" />
        </mxCell>
        <mxCell id="zVp6rDQHLnVt3jqaxe6N-78" value="BibliotecaControllerImpl" style="swimlane;fontStyle=1;align=center;verticalAlign=top;childLayout=stackLayout;horizontal=1;startSize=26;horizontalStack=0;resizeParent=1;resizeParentMax=0;resizeLast=0;collapsible=1;marginBottom=0;whiteSpace=wrap;html=1;" vertex="1" parent="zVp6rDQHLnVt3jqaxe6N-64">
          <mxGeometry x="10" y="240" width="420" height="140" as="geometry" />
        </mxCell>
        <mxCell id="zVp6rDQHLnVt3jqaxe6N-79" value="- itens: List&amp;lt;ItemMultimidia&amp;gt;" style="text;strokeColor=none;fillColor=none;align=left;verticalAlign=top;spacingLeft=4;spacingRight=4;overflow=hidden;rotatable=0;points=[[0,0.5],[1,0.5]];portConstraint=eastwest;whiteSpace=wrap;html=1;" vertex="1" parent="zVp6rDQHLnVt3jqaxe6N-78">
          <mxGeometry y="26" width="420" height="26" as="geometry" />
        </mxCell>
        <mxCell id="zVp6rDQHLnVt3jqaxe6N-80" value="" style="line;strokeWidth=1;fillColor=none;align=left;verticalAlign=middle;spacingTop=-1;spacingLeft=3;spacingRight=3;rotatable=0;labelPosition=right;points=[];portConstraint=eastwest;strokeColor=inherit;" vertex="1" parent="zVp6rDQHLnVt3jqaxe6N-78">
          <mxGeometry y="52" width="420" height="8" as="geometry" />
        </mxCell>
        <mxCell id="zVp6rDQHLnVt3jqaxe6N-81" value="&lt;div&gt;+ &lt;span style=&quot;color:#333333;&quot;&gt;emprestarItem(Membro membro, ItemMultimidia item): boolean&lt;/span&gt;&lt;/div&gt;&lt;div&gt;&lt;span style=&quot;color:#333333;&quot;&gt;&lt;/span&gt;&lt;/div&gt;&lt;div&gt;&lt;span style=&quot;color:#333333;&quot;&gt;+ consultarItensDisponiveis(): List&amp;lt;ItemMultimidia&amp;gt;&lt;/span&gt;&lt;/div&gt;&lt;div&gt;&lt;span style=&quot;color:#333333;&quot;&gt;+ devolverItem(Membro membro, ItemMultimidia item): boolean&lt;br&gt;&lt;/span&gt;&lt;/div&gt;&lt;div&gt;&lt;span data-lucid-type=&quot;application/vnd.lucid.text&quot; data-lucid-content=&quot;{&amp;quot;t&amp;quot;:&amp;quot;consultarItensDisponiveis(): List&lt;ItemMultimidia&gt;\nemprestarItem(Membro membro, ItemMultimidia item): boolean\ndevolverItem(Membro membro, ItemMultimidia item): boolean&amp;quot;,&amp;quot;m&amp;quot;:[{&amp;quot;s&amp;quot;:0,&amp;quot;n&amp;quot;:&amp;quot;c&amp;quot;,&amp;quot;v&amp;quot;:&amp;quot;333333ff&amp;quot;,&amp;quot;e&amp;quot;:166}]}&quot;&gt;&lt;/span&gt;&lt;/div&gt;&lt;div&gt;&lt;span data-lucid-type=&quot;application/vnd.lucid.text&quot; data-lucid-content=&quot;{&amp;quot;t&amp;quot;:&amp;quot;consultarItensDisponiveis(): List&lt;ItemMultimidia&gt;\nemprestarItem(Membro membro, ItemMultimidia item): boolean\ndevolverItem(Membro membro, ItemMultimidia item): boolean&amp;quot;,&amp;quot;m&amp;quot;:[{&amp;quot;s&amp;quot;:0,&amp;quot;n&amp;quot;:&amp;quot;c&amp;quot;,&amp;quot;v&amp;quot;:&amp;quot;333333ff&amp;quot;,&amp;quot;e&amp;quot;:166}]}&quot;&gt;&lt;/span&gt;&lt;span data-lucid-type=&quot;application/vnd.lucid.text&quot; data-lucid-content=&quot;{&amp;quot;t&amp;quot;:&amp;quot;consultarItensDisponiveis(): List&lt;ItemMultimidia&gt;\nemprestarItem(Membro membro, ItemMultimidia item): boolean\ndevolverItem(Membro membro, ItemMultimidia item): boolean&amp;quot;,&amp;quot;m&amp;quot;:[{&amp;quot;s&amp;quot;:0,&amp;quot;n&amp;quot;:&amp;quot;c&amp;quot;,&amp;quot;v&amp;quot;:&amp;quot;333333ff&amp;quot;,&amp;quot;e&amp;quot;:166}]}&quot;&gt;&lt;/span&gt;&lt;span data-lucid-type=&quot;application/vnd.lucid.text&quot; data-lucid-content=&quot;{&amp;quot;t&amp;quot;:&amp;quot;consultarItensDisponiveis(): List&lt;ItemMultimidia&gt;\nemprestarItem(Membro membro, ItemMultimidia item): boolean\ndevolverItem(Membro membro, ItemMultimidia item): boolean&amp;quot;,&amp;quot;m&amp;quot;:[{&amp;quot;s&amp;quot;:0,&amp;quot;n&amp;quot;:&amp;quot;c&amp;quot;,&amp;quot;v&amp;quot;:&amp;quot;333333ff&amp;quot;,&amp;quot;e&amp;quot;:166}]}&quot;&gt;&lt;/span&gt;&lt;span data-lucid-type=&quot;application/vnd.lucid.text&quot; data-lucid-content=&quot;{&amp;quot;t&amp;quot;:&amp;quot;consultarItensDisponiveis(): List&lt;ItemMultimidia&gt;\nemprestarItem(Membro membro, ItemMultimidia item): boolean\ndevolverItem(Membro membro, ItemMultimidia item): boolean&amp;quot;,&amp;quot;m&amp;quot;:[{&amp;quot;s&amp;quot;:0,&amp;quot;n&amp;quot;:&amp;quot;c&amp;quot;,&amp;quot;v&amp;quot;:&amp;quot;333333ff&amp;quot;,&amp;quot;e&amp;quot;:166}]}&quot;&gt;&lt;/span&gt;&lt;span data-lucid-type=&quot;application/vnd.lucid.text&quot; data-lucid-content=&quot;{&amp;quot;t&amp;quot;:&amp;quot;consultarItensDisponiveis(): List&lt;ItemMultimidia&gt;\nemprestarItem(Membro membro, ItemMultimidia item): boolean\ndevolverItem(Membro membro, ItemMultimidia item): boolean&amp;quot;,&amp;quot;m&amp;quot;:[{&amp;quot;s&amp;quot;:0,&amp;quot;n&amp;quot;:&amp;quot;c&amp;quot;,&amp;quot;v&amp;quot;:&amp;quot;333333ff&amp;quot;,&amp;quot;e&amp;quot;:166}]}&quot;&gt;&lt;/span&gt;&lt;span data-lucid-type=&quot;application/vnd.lucid.text&quot; data-lucid-content=&quot;{&amp;quot;t&amp;quot;:&amp;quot;consultarItensDisponiveis(): List&lt;ItemMultimidia&gt;\nemprestarItem(Membro membro, ItemMultimidia item): boolean\ndevolverItem(Membro membro, ItemMultimidia item): boolean&amp;quot;,&amp;quot;m&amp;quot;:[{&amp;quot;s&amp;quot;:0,&amp;quot;n&amp;quot;:&amp;quot;c&amp;quot;,&amp;quot;v&amp;quot;:&amp;quot;333333ff&amp;quot;,&amp;quot;e&amp;quot;:166}]}&quot;&gt;&lt;/span&gt;&lt;/div&gt;" style="text;strokeColor=none;fillColor=none;align=left;verticalAlign=top;spacingLeft=4;spacingRight=4;overflow=hidden;rotatable=0;points=[[0,0.5],[1,0.5]];portConstraint=eastwest;whiteSpace=wrap;html=1;" vertex="1" parent="zVp6rDQHLnVt3jqaxe6N-78">
          <mxGeometry y="60" width="420" height="80" as="geometry" />
        </mxCell>
        <mxCell id="zVp6rDQHLnVt3jqaxe6N-84" value="" style="group" vertex="1" connectable="0" parent="zVp6rDQHLnVt3jqaxe6N-64">
          <mxGeometry x="540" y="50" width="380" height="130" as="geometry" />
        </mxCell>
        <mxCell id="zVp6rDQHLnVt3jqaxe6N-85" value="" style="group" vertex="1" connectable="0" parent="zVp6rDQHLnVt3jqaxe6N-84">
          <mxGeometry width="380" height="110" as="geometry" />
        </mxCell>
        <mxCell id="zVp6rDQHLnVt3jqaxe6N-86" value="&lt;div align=&quot;center&quot;&gt;&lt;br&gt;&lt;/div&gt;&lt;div align=&quot;center&quot;&gt;&amp;lt;&amp;lt;interface&amp;gt;&amp;gt;&lt;/div&gt;&lt;div align=&quot;center&quot;&gt;MembroController&lt;/div&gt;&lt;p style=&quot;margin:0px;margin-top:4px;text-align:center;&quot;&gt;&lt;/p&gt;&lt;hr size=&quot;1&quot;&gt;" style="verticalAlign=top;align=left;overflow=fill;fontSize=12;fontFamily=Helvetica;html=1;whiteSpace=wrap;" vertex="1" parent="zVp6rDQHLnVt3jqaxe6N-85">
          <mxGeometry width="380" height="110" as="geometry" />
        </mxCell>
        <mxCell id="zVp6rDQHLnVt3jqaxe6N-87" value="&lt;div&gt;listarMembros(): List&amp;lt;Membro&amp;gt;&lt;/div&gt;&lt;div&gt;buscarMembroPorIdentificacao(String identificacao): Membro&lt;br&gt;&lt;/div&gt;" style="text;whiteSpace=wrap;html=1;" vertex="1" parent="zVp6rDQHLnVt3jqaxe6N-85">
          <mxGeometry x="5" y="42.30769230769231" width="370" height="59.23076923076923" as="geometry" />
        </mxCell>
        <mxCell id="zVp6rDQHLnVt3jqaxe6N-88" style="edgeStyle=orthogonalEdgeStyle;rounded=0;orthogonalLoop=1;jettySize=auto;html=1;exitX=0.5;exitY=0;exitDx=0;exitDy=0;entryX=0.5;entryY=1;entryDx=0;entryDy=0;dashed=1;dashPattern=12 12;endArrow=block;endFill=0;" edge="1" parent="zVp6rDQHLnVt3jqaxe6N-64" source="zVp6rDQHLnVt3jqaxe6N-89" target="zVp6rDQHLnVt3jqaxe6N-86">
          <mxGeometry relative="1" as="geometry" />
        </mxCell>
        <mxCell id="zVp6rDQHLnVt3jqaxe6N-89" value="&lt;div align=&quot;center&quot;&gt;MembroControllerImpl&lt;/div&gt;&lt;p style=&quot;margin:0px;margin-top:4px;text-align:center;&quot;&gt;&lt;/p&gt;&lt;hr size=&quot;1&quot;&gt;" style="swimlane;fontStyle=1;align=center;verticalAlign=top;childLayout=stackLayout;horizontal=1;startSize=26;horizontalStack=0;resizeParent=1;resizeParentMax=0;resizeLast=0;collapsible=1;marginBottom=0;whiteSpace=wrap;html=1;" vertex="1" parent="zVp6rDQHLnVt3jqaxe6N-64">
          <mxGeometry x="520" y="240" width="420" height="140" as="geometry" />
        </mxCell>
        <mxCell id="zVp6rDQHLnVt3jqaxe6N-90" value="- membros: List&amp;lt;Membro&amp;gt; " style="text;strokeColor=none;fillColor=none;align=left;verticalAlign=top;spacingLeft=4;spacingRight=4;overflow=hidden;rotatable=0;points=[[0,0.5],[1,0.5]];portConstraint=eastwest;whiteSpace=wrap;html=1;" vertex="1" parent="zVp6rDQHLnVt3jqaxe6N-89">
          <mxGeometry y="26" width="420" height="26" as="geometry" />
        </mxCell>
        <mxCell id="zVp6rDQHLnVt3jqaxe6N-91" value="" style="line;strokeWidth=1;fillColor=none;align=left;verticalAlign=middle;spacingTop=-1;spacingLeft=3;spacingRight=3;rotatable=0;labelPosition=right;points=[];portConstraint=eastwest;strokeColor=inherit;" vertex="1" parent="zVp6rDQHLnVt3jqaxe6N-89">
          <mxGeometry y="52" width="420" height="8" as="geometry" />
        </mxCell>
        <mxCell id="zVp6rDQHLnVt3jqaxe6N-92" value="+ listarMembros(): List&amp;lt;Membro&amp;gt;&lt;div&gt;+ buscarMembroPorIdentificacao(String identificacao): Membro&lt;br&gt;&lt;/div&gt;" style="text;strokeColor=none;fillColor=none;align=left;verticalAlign=top;spacingLeft=4;spacingRight=4;overflow=hidden;rotatable=0;points=[[0,0.5],[1,0.5]];portConstraint=eastwest;whiteSpace=wrap;html=1;" vertex="1" parent="zVp6rDQHLnVt3jqaxe6N-89">
          <mxGeometry y="60" width="420" height="80" as="geometry" />
        </mxCell>
        <mxCell id="zVp6rDQHLnVt3jqaxe6N-97" style="edgeStyle=orthogonalEdgeStyle;rounded=0;orthogonalLoop=1;jettySize=auto;html=1;exitX=0.5;exitY=0;exitDx=0;exitDy=0;entryX=0.5;entryY=1;entryDx=0;entryDy=0;dashed=1;dashPattern=12 12;endArrow=block;endFill=0;" edge="1" parent="zVp6rDQHLnVt3jqaxe6N-64" source="zVp6rDQHLnVt3jqaxe6N-98" target="zVp6rDQHLnVt3jqaxe6N-95">
          <mxGeometry relative="1" as="geometry" />
        </mxCell>
        <mxCell id="zVp6rDQHLnVt3jqaxe6N-98" value="BibliotecaControllerImpl" style="swimlane;fontStyle=1;align=center;verticalAlign=top;childLayout=stackLayout;horizontal=1;startSize=26;horizontalStack=0;resizeParent=1;resizeParentMax=0;resizeLast=0;collapsible=1;marginBottom=0;whiteSpace=wrap;html=1;" vertex="1" parent="zVp6rDQHLnVt3jqaxe6N-64">
          <mxGeometry x="990" y="270" width="420" height="160" as="geometry" />
        </mxCell>
        <mxCell id="zVp6rDQHLnVt3jqaxe6N-99" value="- itens: List&amp;lt;ItemMultimidia&amp;gt; itens" style="text;strokeColor=none;fillColor=none;align=left;verticalAlign=top;spacingLeft=4;spacingRight=4;overflow=hidden;rotatable=0;points=[[0,0.5],[1,0.5]];portConstraint=eastwest;whiteSpace=wrap;html=1;" vertex="1" parent="zVp6rDQHLnVt3jqaxe6N-98">
          <mxGeometry y="26" width="420" height="26" as="geometry" />
        </mxCell>
        <mxCell id="zVp6rDQHLnVt3jqaxe6N-100" value="" style="line;strokeWidth=1;fillColor=none;align=left;verticalAlign=middle;spacingTop=-1;spacingLeft=3;spacingRight=3;rotatable=0;labelPosition=right;points=[];portConstraint=eastwest;strokeColor=inherit;" vertex="1" parent="zVp6rDQHLnVt3jqaxe6N-98">
          <mxGeometry y="52" width="420" height="8" as="geometry" />
        </mxCell>
        <mxCell id="zVp6rDQHLnVt3jqaxe6N-101" value="gerarEstatisticasUsoPorPerfil(RelatorioView view): void&lt;br&gt;&lt;span style=&quot;color:#333333;&quot;&gt;gerarRelatorioDisponibilidadeItens(RelatorioView view): void&lt;br&gt;&lt;/span&gt;&lt;span style=&quot;color:#333333;&quot;&gt;gerarRelatorioMultas(RelatorioView view): void&lt;br&gt;&lt;/span&gt;&lt;span style=&quot;color:#333333;&quot;&gt;gerarRelatorioUsoItens(RelatorioView view): void&lt;br&gt;&lt;/span&gt;&lt;div&gt;&lt;span style=&quot;color:#333333;&quot;&gt;gerarRelatorioAtividadesMembros(RelatorioView view): void&lt;/span&gt;&lt;/div&gt;getatRelatorioItensPopulares(RelatorioView view): void&lt;br&gt;&lt;div&gt;&lt;br&gt;&lt;span style=&quot;color:#333333;&quot;&gt;&lt;/span&gt;&lt;span data-lucid-content=&quot;{&amp;quot;t&amp;quot;:&amp;quot;gerarRelatorioAtividadesMembros(RelatorioView view): void\ngerarRelatorioUsoItens(RelatorioView view): void\ngerarRelatorioMultas(RelatorioView view): void\ngerarRelatorioDisponibilidadeItens(RelatorioView view): void\ngerarEstatisticasUsoPorPerfil(RelatorioView view): void\ngerarRelatorioItensPopulares(RelatorioView view): void&amp;quot;,&amp;quot;m&amp;quot;:[{&amp;quot;s&amp;quot;:0,&amp;quot;n&amp;quot;:&amp;quot;c&amp;quot;,&amp;quot;v&amp;quot;:&amp;quot;333333ff&amp;quot;,&amp;quot;e&amp;quot;:325}]}&quot; data-lucid-type=&quot;application/vnd.lucid.text&quot;&gt;&lt;/span&gt;&lt;/div&gt;" style="text;strokeColor=none;fillColor=none;align=left;verticalAlign=top;spacingLeft=4;spacingRight=4;overflow=hidden;rotatable=0;points=[[0,0.5],[1,0.5]];portConstraint=eastwest;whiteSpace=wrap;html=1;" vertex="1" parent="zVp6rDQHLnVt3jqaxe6N-98">
          <mxGeometry y="60" width="420" height="100" as="geometry" />
        </mxCell>
        <mxCell id="zVp6rDQHLnVt3jqaxe6N-93" value="" style="group" vertex="1" connectable="0" parent="zVp6rDQHLnVt3jqaxe6N-64">
          <mxGeometry x="1010" y="50" width="380" height="180" as="geometry" />
        </mxCell>
        <mxCell id="zVp6rDQHLnVt3jqaxe6N-94" value="" style="group" vertex="1" connectable="0" parent="zVp6rDQHLnVt3jqaxe6N-93">
          <mxGeometry width="380" height="180" as="geometry" />
        </mxCell>
        <mxCell id="zVp6rDQHLnVt3jqaxe6N-103" value="" style="group" vertex="1" connectable="0" parent="zVp6rDQHLnVt3jqaxe6N-94">
          <mxGeometry width="380" height="180" as="geometry" />
        </mxCell>
        <mxCell id="zVp6rDQHLnVt3jqaxe6N-95" value="&lt;div align=&quot;center&quot;&gt;&lt;br&gt;&lt;/div&gt;&lt;div align=&quot;center&quot;&gt;&amp;lt;&amp;lt;interface&amp;gt;&amp;gt;&lt;/div&gt;&lt;div align=&quot;center&quot;&gt;RelatorioController&lt;/div&gt;&lt;p style=&quot;margin:0px;margin-top:4px;text-align:center;&quot;&gt;&lt;/p&gt;&lt;hr size=&quot;1&quot;&gt;" style="verticalAlign=top;align=left;overflow=fill;fontSize=12;fontFamily=Helvetica;html=1;whiteSpace=wrap;" vertex="1" parent="zVp6rDQHLnVt3jqaxe6N-103">
          <mxGeometry width="380" height="180" as="geometry" />
        </mxCell>
        <mxCell id="zVp6rDQHLnVt3jqaxe6N-96" value="&lt;span style=&quot;color:#333333;&quot;&gt;gerarEstatisticasUsoPorPerfil(RelatorioView view): void&lt;br&gt;&lt;/span&gt;&lt;span style=&quot;color:#333333;&quot;&gt;gerarRelatorioDisponibilidadeItens(RelatorioView view): void&lt;br&gt;&lt;/span&gt;&lt;span style=&quot;color:#333333;&quot;&gt;gerarRelatorioMultas(RelatorioView view): void&lt;br&gt;&lt;/span&gt;&lt;span style=&quot;color:#333333;&quot;&gt;gerarRelatorioUsoItens(RelatorioView view): void&lt;br&gt;&lt;/span&gt;&lt;div&gt;&lt;span style=&quot;color:#333333;&quot;&gt;gerarRelatorioAtividadesMembros(RelatorioView view): void&lt;/span&gt;&lt;/div&gt;getatRelatorioItensPopulares(RelatorioView view): void&lt;br&gt;&lt;div&gt;&lt;br&gt;&lt;span style=&quot;color:#333333;&quot;&gt;&lt;/span&gt;&lt;span data-lucid-content=&quot;{&amp;quot;t&amp;quot;:&amp;quot;gerarRelatorioAtividadesMembros(RelatorioView view): void\ngerarRelatorioUsoItens(RelatorioView view): void\ngerarRelatorioMultas(RelatorioView view): void\ngerarRelatorioDisponibilidadeItens(RelatorioView view): void\ngerarEstatisticasUsoPorPerfil(RelatorioView view): void\ngerarRelatorioItensPopulares(RelatorioView view): void&amp;quot;,&amp;quot;m&amp;quot;:[{&amp;quot;s&amp;quot;:0,&amp;quot;n&amp;quot;:&amp;quot;c&amp;quot;,&amp;quot;v&amp;quot;:&amp;quot;333333ff&amp;quot;,&amp;quot;e&amp;quot;:325}]}&quot; data-lucid-type=&quot;application/vnd.lucid.text&quot;&gt;&lt;/span&gt;&lt;/div&gt;" style="text;whiteSpace=wrap;html=1;" vertex="1" parent="zVp6rDQHLnVt3jqaxe6N-103">
          <mxGeometry x="10" y="59.997142857142855" width="370" height="102.85714285714285" as="geometry" />
        </mxCell>
        <mxCell id="zVp6rDQHLnVt3jqaxe6N-110" value="" style="group" vertex="1" connectable="0" parent="zVp6rDQHLnVt3jqaxe6N-5">
          <mxGeometry x="50" y="1230" width="1760" height="1380" as="geometry" />
        </mxCell>
        <mxCell id="zVp6rDQHLnVt3jqaxe6N-104" value="" style="shape=folder;fontStyle=1;spacingTop=10;tabWidth=190;tabHeight=40;tabPosition=left;html=1;whiteSpace=wrap;" vertex="1" parent="zVp6rDQHLnVt3jqaxe6N-110">
          <mxGeometry width="1740" height="1100" as="geometry" />
        </mxCell>
        <mxCell id="zVp6rDQHLnVt3jqaxe6N-105" value="&lt;font style=&quot;font-size: 16px;&quot;&gt;models&lt;/font&gt;" style="text;align=center;fontStyle=1;verticalAlign=middle;spacingLeft=3;spacingRight=3;strokeColor=none;rotatable=0;points=[[0,0.5],[1,0.5]];portConstraint=eastwest;html=1;strokeWidth=5;" vertex="1" parent="zVp6rDQHLnVt3jqaxe6N-110">
          <mxGeometry x="48.33333333333333" y="11.071428571428573" width="120.83333333333333" height="33.214285714285715" as="geometry" />
        </mxCell>
        <mxCell id="zVp6rDQHLnVt3jqaxe6N-146" value="" style="group" vertex="1" connectable="0" parent="zVp6rDQHLnVt3jqaxe6N-110">
          <mxGeometry x="48.329999999999984" y="70" width="1330" height="490" as="geometry" />
        </mxCell>
        <mxCell id="zVp6rDQHLnVt3jqaxe6N-106" value="Membro" style="swimlane;fontStyle=1;align=center;verticalAlign=top;childLayout=stackLayout;horizontal=1;startSize=26;horizontalStack=0;resizeParent=1;resizeParentMax=0;resizeLast=0;collapsible=1;marginBottom=0;whiteSpace=wrap;html=1;" vertex="1" parent="zVp6rDQHLnVt3jqaxe6N-146">
          <mxGeometry x="309.99666666666644" width="519.5833333333333" height="384.7142857142857" as="geometry" />
        </mxCell>
        <mxCell id="zVp6rDQHLnVt3jqaxe6N-107" value="&lt;div&gt;# nome: String&lt;/div&gt;&lt;div&gt;# ra: int&lt;/div&gt;&lt;div&gt;# contagemRa: int&lt;/div&gt;&lt;div&gt;# contato: String&lt;/div&gt;&lt;div&gt;# endereco: String&lt;/div&gt;&lt;div&gt;# dataRegistro: Localdate&lt;/div&gt;&lt;div&gt;# multimidiasEmprestadas: ItemMultimidia[]&lt;/div&gt;&lt;div&gt;# prazoEmprestimo: int&lt;/div&gt;&lt;div&gt;# valorMulta: double&lt;/div&gt;&lt;div&gt;# totalMulta: double&lt;/div&gt;&lt;div&gt;# bloqueado: boolean&lt;/div&gt;&lt;div&gt;# lib: Biblioteca&lt;br&gt;&lt;/div&gt;&lt;div&gt;&lt;br&gt;&lt;/div&gt;&lt;div&gt;&lt;br&gt;&lt;/div&gt;" style="text;strokeColor=none;fillColor=none;align=left;verticalAlign=top;spacingLeft=4;spacingRight=4;overflow=hidden;rotatable=0;points=[[0,0.5],[1,0.5]];portConstraint=eastwest;whiteSpace=wrap;html=1;" vertex="1" parent="zVp6rDQHLnVt3jqaxe6N-106">
          <mxGeometry y="26" width="519.5833333333333" height="225.85714285714286" as="geometry" />
        </mxCell>
        <mxCell id="zVp6rDQHLnVt3jqaxe6N-108" value="" style="line;strokeWidth=1;fillColor=none;align=left;verticalAlign=middle;spacingTop=-1;spacingLeft=3;spacingRight=3;rotatable=0;labelPosition=right;points=[];portConstraint=eastwest;strokeColor=inherit;" vertex="1" parent="zVp6rDQHLnVt3jqaxe6N-106">
          <mxGeometry y="251.85714285714286" width="519.5833333333333" height="8.857142857142858" as="geometry" />
        </mxCell>
        <mxCell id="zVp6rDQHLnVt3jqaxe6N-109" value="&lt;div&gt;+ solicitarEmprestimo(Livro livro, Funcionario funcionario): void&lt;/div&gt;&lt;div&gt;+ removerMultimidia(ItemMultimidia item): void&lt;/div&gt;&lt;div&gt;+ solicitarReserva(Administradores adm, ItemMultimidia item): void&lt;/div&gt;&lt;div&gt;+ realizarDevolucao(Funcionario f, ItemMultimidia m): void&lt;/div&gt;&lt;div&gt;+ solicitarRenovacao(ItemMultimidia item, Funcionario f): void&lt;/div&gt;&lt;div&gt;+ solicitarReserva(Administradores adm, ItemMultimidia item): void&lt;br&gt;&lt;/div&gt;" style="text;strokeColor=none;fillColor=none;align=left;verticalAlign=top;spacingLeft=4;spacingRight=4;overflow=hidden;rotatable=0;points=[[0,0.5],[1,0.5]];portConstraint=eastwest;whiteSpace=wrap;html=1;" vertex="1" parent="zVp6rDQHLnVt3jqaxe6N-106">
          <mxGeometry y="260.7142857142857" width="519.5833333333333" height="124" as="geometry" />
        </mxCell>
        <mxCell id="zVp6rDQHLnVt3jqaxe6N-115" style="edgeStyle=orthogonalEdgeStyle;rounded=0;orthogonalLoop=1;jettySize=auto;html=1;entryX=-0.006;entryY=0.899;entryDx=0;entryDy=0;entryPerimeter=0;endArrow=block;endFill=0;" edge="1" parent="zVp6rDQHLnVt3jqaxe6N-146" source="zVp6rDQHLnVt3jqaxe6N-111" target="zVp6rDQHLnVt3jqaxe6N-107">
          <mxGeometry relative="1" as="geometry" />
        </mxCell>
        <mxCell id="zVp6rDQHLnVt3jqaxe6N-111" value="Graduacao" style="swimlane;fontStyle=1;align=center;verticalAlign=top;childLayout=stackLayout;horizontal=1;startSize=26;horizontalStack=0;resizeParent=1;resizeParentMax=0;resizeLast=0;collapsible=1;marginBottom=0;whiteSpace=wrap;html=1;" vertex="1" parent="zVp6rDQHLnVt3jqaxe6N-146">
          <mxGeometry y="10" width="160" height="60" as="geometry" />
        </mxCell>
        <mxCell id="zVp6rDQHLnVt3jqaxe6N-112" value="+ curso: String" style="text;strokeColor=none;fillColor=none;align=left;verticalAlign=top;spacingLeft=4;spacingRight=4;overflow=hidden;rotatable=0;points=[[0,0.5],[1,0.5]];portConstraint=eastwest;whiteSpace=wrap;html=1;" vertex="1" parent="zVp6rDQHLnVt3jqaxe6N-111">
          <mxGeometry y="26" width="160" height="26" as="geometry" />
        </mxCell>
        <mxCell id="zVp6rDQHLnVt3jqaxe6N-113" value="" style="line;strokeWidth=1;fillColor=none;align=left;verticalAlign=middle;spacingTop=-1;spacingLeft=3;spacingRight=3;rotatable=0;labelPosition=right;points=[];portConstraint=eastwest;strokeColor=inherit;" vertex="1" parent="zVp6rDQHLnVt3jqaxe6N-111">
          <mxGeometry y="52" width="160" height="8" as="geometry" />
        </mxCell>
        <mxCell id="zVp6rDQHLnVt3jqaxe6N-122" style="edgeStyle=orthogonalEdgeStyle;rounded=0;orthogonalLoop=1;jettySize=auto;html=1;entryX=-0.006;entryY=0.899;entryDx=0;entryDy=0;entryPerimeter=0;endArrow=block;endFill=0;" edge="1" parent="zVp6rDQHLnVt3jqaxe6N-146" source="zVp6rDQHLnVt3jqaxe6N-116" target="zVp6rDQHLnVt3jqaxe6N-107">
          <mxGeometry relative="1" as="geometry" />
        </mxCell>
        <mxCell id="zVp6rDQHLnVt3jqaxe6N-116" value="PosGraduacao" style="swimlane;fontStyle=1;align=center;verticalAlign=top;childLayout=stackLayout;horizontal=1;startSize=26;horizontalStack=0;resizeParent=1;resizeParentMax=0;resizeLast=0;collapsible=1;marginBottom=0;whiteSpace=wrap;html=1;" vertex="1" parent="zVp6rDQHLnVt3jqaxe6N-146">
          <mxGeometry y="110" width="160" height="88" as="geometry" />
        </mxCell>
        <mxCell id="zVp6rDQHLnVt3jqaxe6N-117" value="&lt;div&gt;+ nivel: String&lt;/div&gt;&lt;div&gt;+ instituto: String&lt;br&gt;&lt;/div&gt;" style="text;strokeColor=none;fillColor=none;align=left;verticalAlign=top;spacingLeft=4;spacingRight=4;overflow=hidden;rotatable=0;points=[[0,0.5],[1,0.5]];portConstraint=eastwest;whiteSpace=wrap;html=1;" vertex="1" parent="zVp6rDQHLnVt3jqaxe6N-116">
          <mxGeometry y="26" width="160" height="54" as="geometry" />
        </mxCell>
        <mxCell id="zVp6rDQHLnVt3jqaxe6N-118" value="" style="line;strokeWidth=1;fillColor=none;align=left;verticalAlign=middle;spacingTop=-1;spacingLeft=3;spacingRight=3;rotatable=0;labelPosition=right;points=[];portConstraint=eastwest;strokeColor=inherit;" vertex="1" parent="zVp6rDQHLnVt3jqaxe6N-116">
          <mxGeometry y="80" width="160" height="8" as="geometry" />
        </mxCell>
        <mxCell id="zVp6rDQHLnVt3jqaxe6N-119" value="Professor" style="swimlane;fontStyle=1;align=center;verticalAlign=top;childLayout=stackLayout;horizontal=1;startSize=26;horizontalStack=0;resizeParent=1;resizeParentMax=0;resizeLast=0;collapsible=1;marginBottom=0;whiteSpace=wrap;html=1;" vertex="1" parent="zVp6rDQHLnVt3jqaxe6N-146">
          <mxGeometry y="240" width="160" height="88" as="geometry" />
        </mxCell>
        <mxCell id="zVp6rDQHLnVt3jqaxe6N-120" value="+ disciplina: String" style="text;strokeColor=none;fillColor=none;align=left;verticalAlign=top;spacingLeft=4;spacingRight=4;overflow=hidden;rotatable=0;points=[[0,0.5],[1,0.5]];portConstraint=eastwest;whiteSpace=wrap;html=1;" vertex="1" parent="zVp6rDQHLnVt3jqaxe6N-119">
          <mxGeometry y="26" width="160" height="54" as="geometry" />
        </mxCell>
        <mxCell id="zVp6rDQHLnVt3jqaxe6N-121" value="" style="line;strokeWidth=1;fillColor=none;align=left;verticalAlign=middle;spacingTop=-1;spacingLeft=3;spacingRight=3;rotatable=0;labelPosition=right;points=[];portConstraint=eastwest;strokeColor=inherit;" vertex="1" parent="zVp6rDQHLnVt3jqaxe6N-119">
          <mxGeometry y="80" width="160" height="8" as="geometry" />
        </mxCell>
        <mxCell id="zVp6rDQHLnVt3jqaxe6N-123" style="edgeStyle=orthogonalEdgeStyle;rounded=0;orthogonalLoop=1;jettySize=auto;html=1;entryX=-0.008;entryY=0.899;entryDx=0;entryDy=0;entryPerimeter=0;endArrow=block;endFill=0;" edge="1" parent="zVp6rDQHLnVt3jqaxe6N-146" source="zVp6rDQHLnVt3jqaxe6N-120" target="zVp6rDQHLnVt3jqaxe6N-107">
          <mxGeometry relative="1" as="geometry" />
        </mxCell>
        <mxCell id="zVp6rDQHLnVt3jqaxe6N-128" style="edgeStyle=orthogonalEdgeStyle;rounded=0;orthogonalLoop=1;jettySize=auto;html=1;entryX=1;entryY=0.5;entryDx=0;entryDy=0;endArrow=block;endFill=0;" edge="1" parent="zVp6rDQHLnVt3jqaxe6N-146" source="zVp6rDQHLnVt3jqaxe6N-124" target="zVp6rDQHLnVt3jqaxe6N-107">
          <mxGeometry relative="1" as="geometry" />
        </mxCell>
        <mxCell id="zVp6rDQHLnVt3jqaxe6N-124" value="Funcionario" style="swimlane;fontStyle=1;align=center;verticalAlign=top;childLayout=stackLayout;horizontal=1;startSize=26;horizontalStack=0;resizeParent=1;resizeParentMax=0;resizeLast=0;collapsible=1;marginBottom=0;whiteSpace=wrap;html=1;" vertex="1" parent="zVp6rDQHLnVt3jqaxe6N-146">
          <mxGeometry x="870" width="360" height="130" as="geometry" />
        </mxCell>
        <mxCell id="zVp6rDQHLnVt3jqaxe6N-126" value="" style="line;strokeWidth=1;fillColor=none;align=left;verticalAlign=middle;spacingTop=-1;spacingLeft=3;spacingRight=3;rotatable=0;labelPosition=right;points=[];portConstraint=eastwest;strokeColor=inherit;" vertex="1" parent="zVp6rDQHLnVt3jqaxe6N-124">
          <mxGeometry y="26" width="360" height="8" as="geometry" />
        </mxCell>
        <mxCell id="zVp6rDQHLnVt3jqaxe6N-127" value="&lt;div&gt;+ emprestar(ItemMultimidia item, Membro membro): boolean&lt;br&gt;&lt;/div&gt;&lt;div&gt;+ devolucao(ItemMultimidia): boolean&lt;/div&gt;&lt;div&gt;+ renovacao(ItemMultimidia item): void&lt;br&gt;&lt;/div&gt;" style="text;strokeColor=none;fillColor=none;align=left;verticalAlign=top;spacingLeft=4;spacingRight=4;overflow=hidden;rotatable=0;points=[[0,0.5],[1,0.5]];portConstraint=eastwest;whiteSpace=wrap;html=1;" vertex="1" parent="zVp6rDQHLnVt3jqaxe6N-124">
          <mxGeometry y="34" width="360" height="96" as="geometry" />
        </mxCell>
        <mxCell id="zVp6rDQHLnVt3jqaxe6N-133" style="edgeStyle=orthogonalEdgeStyle;rounded=0;orthogonalLoop=1;jettySize=auto;html=1;entryX=0.556;entryY=1;entryDx=0;entryDy=0;entryPerimeter=0;endArrow=block;endFill=0;" edge="1" parent="zVp6rDQHLnVt3jqaxe6N-146" source="zVp6rDQHLnVt3jqaxe6N-129" target="zVp6rDQHLnVt3jqaxe6N-127">
          <mxGeometry relative="1" as="geometry" />
        </mxCell>
        <mxCell id="zVp6rDQHLnVt3jqaxe6N-129" value="Atendente" style="swimlane;fontStyle=1;align=center;verticalAlign=top;childLayout=stackLayout;horizontal=1;startSize=26;horizontalStack=0;resizeParent=1;resizeParentMax=0;resizeLast=0;collapsible=1;marginBottom=0;whiteSpace=wrap;html=1;" vertex="1" parent="zVp6rDQHLnVt3jqaxe6N-146">
          <mxGeometry x="860" y="175.36" width="160" height="34" as="geometry" />
        </mxCell>
        <mxCell id="zVp6rDQHLnVt3jqaxe6N-131" value="" style="line;strokeWidth=1;fillColor=none;align=left;verticalAlign=middle;spacingTop=-1;spacingLeft=3;spacingRight=3;rotatable=0;labelPosition=right;points=[];portConstraint=eastwest;strokeColor=inherit;" vertex="1" parent="zVp6rDQHLnVt3jqaxe6N-129">
          <mxGeometry y="26" width="160" height="8" as="geometry" />
        </mxCell>
        <mxCell id="zVp6rDQHLnVt3jqaxe6N-144" style="edgeStyle=orthogonalEdgeStyle;rounded=0;orthogonalLoop=1;jettySize=auto;html=1;endArrow=block;endFill=0;" edge="1" parent="zVp6rDQHLnVt3jqaxe6N-146" source="zVp6rDQHLnVt3jqaxe6N-134">
          <mxGeometry relative="1" as="geometry">
            <mxPoint x="1070" y="130" as="targetPoint" />
          </mxGeometry>
        </mxCell>
        <mxCell id="zVp6rDQHLnVt3jqaxe6N-145" style="edgeStyle=orthogonalEdgeStyle;rounded=0;orthogonalLoop=1;jettySize=auto;html=1;endArrow=block;endFill=0;" edge="1" parent="zVp6rDQHLnVt3jqaxe6N-146" source="zVp6rDQHLnVt3jqaxe6N-140">
          <mxGeometry relative="1" as="geometry">
            <mxPoint x="1070" y="130" as="targetPoint" />
            <Array as="points">
              <mxPoint x="1070" y="241" />
              <mxPoint x="1071" y="130" />
            </Array>
          </mxGeometry>
        </mxCell>
        <mxCell id="zVp6rDQHLnVt3jqaxe6N-155" value="&lt;div&gt;&amp;lt;&amp;lt;interface&amp;gt;&amp;gt;&lt;/div&gt;&lt;div&gt;Formato&lt;br&gt;&lt;/div&gt;" style="swimlane;fontStyle=0;childLayout=stackLayout;horizontal=1;startSize=26;fillColor=none;horizontalStack=0;resizeParent=1;resizeParentMax=0;resizeLast=0;collapsible=1;marginBottom=0;whiteSpace=wrap;html=1;" vertex="1" parent="zVp6rDQHLnVt3jqaxe6N-110">
          <mxGeometry x="1570" y="260" width="140" height="110" as="geometry">
            <mxRectangle x="720" y="770" width="110" height="40" as="alternateBounds" />
          </mxGeometry>
        </mxCell>
        <mxCell id="zVp6rDQHLnVt3jqaxe6N-158" value="&lt;div align=&quot;center&quot;&gt;PDF&lt;/div&gt;&lt;div align=&quot;center&quot;&gt;ePub&lt;/div&gt;&lt;div align=&quot;center&quot;&gt;HTML&lt;/div&gt;&lt;div align=&quot;center&quot;&gt;DjVu&lt;br&gt;&lt;/div&gt;" style="text;strokeColor=none;fillColor=none;align=center;verticalAlign=top;spacingLeft=4;spacingRight=4;overflow=hidden;rotatable=0;points=[[0,0.5],[1,0.5]];portConstraint=eastwest;whiteSpace=wrap;html=1;" vertex="1" parent="zVp6rDQHLnVt3jqaxe6N-155">
          <mxGeometry y="26" width="140" height="84" as="geometry" />
        </mxCell>
        <mxCell id="zVp6rDQHLnVt3jqaxe6N-159" value="&lt;div&gt;&amp;lt;&amp;lt;interface&amp;gt;&amp;gt;&lt;/div&gt;&lt;div&gt;Dispositivos&lt;br&gt;&lt;/div&gt;" style="swimlane;fontStyle=0;childLayout=stackLayout;horizontal=1;startSize=26;fillColor=none;horizontalStack=0;resizeParent=1;resizeParentMax=0;resizeLast=0;collapsible=1;marginBottom=0;whiteSpace=wrap;html=1;" vertex="1" parent="zVp6rDQHLnVt3jqaxe6N-110">
          <mxGeometry x="1570" y="110" width="140" height="110" as="geometry">
            <mxRectangle x="720" y="770" width="110" height="40" as="alternateBounds" />
          </mxGeometry>
        </mxCell>
        <mxCell id="zVp6rDQHLnVt3jqaxe6N-160" value="&lt;div&gt;Celular&lt;/div&gt;&lt;div&gt;Computador&lt;/div&gt;&lt;div&gt;Notebook&lt;/div&gt;&lt;div&gt;Tablet&lt;br&gt;&lt;/div&gt;" style="text;strokeColor=none;fillColor=none;align=center;verticalAlign=top;spacingLeft=4;spacingRight=4;overflow=hidden;rotatable=0;points=[[0,0.5],[1,0.5]];portConstraint=eastwest;whiteSpace=wrap;html=1;" vertex="1" parent="zVp6rDQHLnVt3jqaxe6N-159">
          <mxGeometry y="26" width="140" height="84" as="geometry" />
        </mxCell>
        <mxCell id="zVp6rDQHLnVt3jqaxe6N-177" value="" style="group" vertex="1" connectable="0" parent="zVp6rDQHLnVt3jqaxe6N-110">
          <mxGeometry x="80" y="620" width="740" height="355" as="geometry" />
        </mxCell>
        <mxCell id="zVp6rDQHLnVt3jqaxe6N-147" value="ItemMultimidia" style="swimlane;fontStyle=1;align=center;verticalAlign=top;childLayout=stackLayout;horizontal=1;startSize=26;horizontalStack=0;resizeParent=1;resizeParentMax=0;resizeLast=0;collapsible=1;marginBottom=0;whiteSpace=wrap;html=1;" vertex="1" parent="zVp6rDQHLnVt3jqaxe6N-177">
          <mxGeometry x="280" width="460" height="178" as="geometry" />
        </mxCell>
        <mxCell id="zVp6rDQHLnVt3jqaxe6N-148" value="&lt;div&gt;+ idMultimidia: int&lt;/div&gt;&lt;div&gt;+ titulo; String&lt;/div&gt;&lt;div&gt;+ autores: String[]&lt;/div&gt;&lt;div&gt;+ genero: String&lt;/div&gt;&lt;div&gt;+ dataEntrada: LocalDate&lt;/div&gt;&lt;div&gt;+ disponivel: boolean&lt;/div&gt;&lt;div&gt;+ conservacao: String&lt;/div&gt;&lt;div&gt;+ reserva: Membro&lt;br&gt;&lt;/div&gt;" style="text;strokeColor=none;fillColor=none;align=left;verticalAlign=top;spacingLeft=4;spacingRight=4;overflow=hidden;rotatable=0;points=[[0,0.5],[1,0.5]];portConstraint=eastwest;whiteSpace=wrap;html=1;" vertex="1" parent="zVp6rDQHLnVt3jqaxe6N-147">
          <mxGeometry y="26" width="460" height="144" as="geometry" />
        </mxCell>
        <mxCell id="zVp6rDQHLnVt3jqaxe6N-149" value="" style="line;strokeWidth=1;fillColor=none;align=left;verticalAlign=middle;spacingTop=-1;spacingLeft=3;spacingRight=3;rotatable=0;labelPosition=right;points=[];portConstraint=eastwest;strokeColor=inherit;" vertex="1" parent="zVp6rDQHLnVt3jqaxe6N-147">
          <mxGeometry y="170" width="460" height="8" as="geometry" />
        </mxCell>
        <mxCell id="zVp6rDQHLnVt3jqaxe6N-161" style="edgeStyle=orthogonalEdgeStyle;rounded=0;orthogonalLoop=1;jettySize=auto;html=1;entryX=0;entryY=0.5;entryDx=0;entryDy=0;endArrow=block;endFill=0;" edge="1" parent="zVp6rDQHLnVt3jqaxe6N-177" source="zVp6rDQHLnVt3jqaxe6N-151" target="zVp6rDQHLnVt3jqaxe6N-148">
          <mxGeometry relative="1" as="geometry" />
        </mxCell>
        <mxCell id="zVp6rDQHLnVt3jqaxe6N-151" value="LivroDigital" style="swimlane;fontStyle=1;align=center;verticalAlign=top;childLayout=stackLayout;horizontal=1;startSize=26;horizontalStack=0;resizeParent=1;resizeParentMax=0;resizeLast=0;collapsible=1;marginBottom=0;whiteSpace=wrap;html=1;" vertex="1" parent="zVp6rDQHLnVt3jqaxe6N-177">
          <mxGeometry width="220" height="128" as="geometry" />
        </mxCell>
        <mxCell id="zVp6rDQHLnVt3jqaxe6N-152" value="&lt;div&gt;+ formato: Formato&lt;/div&gt;&lt;div&gt;+ numLicensas: int&lt;/div&gt;&lt;div&gt;+ url: String&lt;/div&gt;&lt;div&gt;+ compatibilidade: Dispositivo[]&lt;br&gt;&lt;/div&gt;&lt;div&gt;+ dataDisponibilidade: LocalDate&lt;/div&gt;&lt;div&gt;# totalLicensas: int&lt;br&gt;&lt;/div&gt;" style="text;strokeColor=none;fillColor=none;align=left;verticalAlign=top;spacingLeft=4;spacingRight=4;overflow=hidden;rotatable=0;points=[[0,0.5],[1,0.5]];portConstraint=eastwest;whiteSpace=wrap;html=1;" vertex="1" parent="zVp6rDQHLnVt3jqaxe6N-151">
          <mxGeometry y="26" width="220" height="94" as="geometry" />
        </mxCell>
        <mxCell id="zVp6rDQHLnVt3jqaxe6N-153" value="" style="line;strokeWidth=1;fillColor=none;align=left;verticalAlign=middle;spacingTop=-1;spacingLeft=3;spacingRight=3;rotatable=0;labelPosition=right;points=[];portConstraint=eastwest;strokeColor=inherit;" vertex="1" parent="zVp6rDQHLnVt3jqaxe6N-151">
          <mxGeometry y="120" width="220" height="8" as="geometry" />
        </mxCell>
        <mxCell id="zVp6rDQHLnVt3jqaxe6N-166" style="edgeStyle=orthogonalEdgeStyle;rounded=0;orthogonalLoop=1;jettySize=auto;html=1;endArrow=block;endFill=0;" edge="1" parent="zVp6rDQHLnVt3jqaxe6N-177" source="zVp6rDQHLnVt3jqaxe6N-162" target="zVp6rDQHLnVt3jqaxe6N-148">
          <mxGeometry relative="1" as="geometry">
            <Array as="points">
              <mxPoint x="250" y="226" />
              <mxPoint x="250" y="98" />
            </Array>
          </mxGeometry>
        </mxCell>
        <mxCell id="zVp6rDQHLnVt3jqaxe6N-162" value="LivroFisico" style="swimlane;fontStyle=1;align=center;verticalAlign=top;childLayout=stackLayout;horizontal=1;startSize=26;horizontalStack=0;resizeParent=1;resizeParentMax=0;resizeLast=0;collapsible=1;marginBottom=0;whiteSpace=wrap;html=1;" vertex="1" parent="zVp6rDQHLnVt3jqaxe6N-177">
          <mxGeometry y="167" width="160" height="118" as="geometry">
            <mxRectangle x="3170" y="-40" width="100" height="30" as="alternateBounds" />
          </mxGeometry>
        </mxCell>
        <mxCell id="zVp6rDQHLnVt3jqaxe6N-163" value="&lt;div&gt;+ editora: String&lt;/div&gt;&lt;div&gt;+ isbn: int&lt;/div&gt;&lt;div&gt;+ edicao: int&lt;/div&gt;&lt;div&gt;+ coordenada: String&lt;/div&gt;&lt;div&gt;+ tombo: int&lt;br&gt;&lt;/div&gt;" style="text;strokeColor=none;fillColor=none;align=left;verticalAlign=top;spacingLeft=4;spacingRight=4;overflow=hidden;rotatable=0;points=[[0,0.5],[1,0.5]];portConstraint=eastwest;whiteSpace=wrap;html=1;" vertex="1" parent="zVp6rDQHLnVt3jqaxe6N-162">
          <mxGeometry y="26" width="160" height="84" as="geometry" />
        </mxCell>
        <mxCell id="zVp6rDQHLnVt3jqaxe6N-164" value="" style="line;strokeWidth=1;fillColor=none;align=left;verticalAlign=middle;spacingTop=-1;spacingLeft=3;spacingRight=3;rotatable=0;labelPosition=right;points=[];portConstraint=eastwest;strokeColor=inherit;" vertex="1" parent="zVp6rDQHLnVt3jqaxe6N-162">
          <mxGeometry y="110" width="160" height="8" as="geometry" />
        </mxCell>
        <mxCell id="zVp6rDQHLnVt3jqaxe6N-171" style="edgeStyle=orthogonalEdgeStyle;rounded=0;orthogonalLoop=1;jettySize=auto;html=1;entryX=0.5;entryY=1;entryDx=0;entryDy=0;endArrow=block;endFill=0;" edge="1" parent="zVp6rDQHLnVt3jqaxe6N-177" source="zVp6rDQHLnVt3jqaxe6N-167" target="zVp6rDQHLnVt3jqaxe6N-147">
          <mxGeometry relative="1" as="geometry" />
        </mxCell>
        <mxCell id="zVp6rDQHLnVt3jqaxe6N-167" value="Cd" style="swimlane;fontStyle=1;align=center;verticalAlign=top;childLayout=stackLayout;horizontal=1;startSize=26;horizontalStack=0;resizeParent=1;resizeParentMax=0;resizeLast=0;collapsible=1;marginBottom=0;whiteSpace=wrap;html=1;" vertex="1" parent="zVp6rDQHLnVt3jqaxe6N-177">
          <mxGeometry x="280" y="247" width="160" height="108" as="geometry" />
        </mxCell>
        <mxCell id="zVp6rDQHLnVt3jqaxe6N-168" value="&lt;div&gt;+ faixas: String[]&lt;/div&gt;&lt;div&gt;+ armazenamento: int&lt;/div&gt;&lt;div&gt;+ distribuidora: String&lt;/div&gt;&lt;div&gt;+ duracao: int&lt;br&gt;&lt;/div&gt;" style="text;strokeColor=none;fillColor=none;align=left;verticalAlign=top;spacingLeft=4;spacingRight=4;overflow=hidden;rotatable=0;points=[[0,0.5],[1,0.5]];portConstraint=eastwest;whiteSpace=wrap;html=1;" vertex="1" parent="zVp6rDQHLnVt3jqaxe6N-167">
          <mxGeometry y="26" width="160" height="74" as="geometry" />
        </mxCell>
        <mxCell id="zVp6rDQHLnVt3jqaxe6N-169" value="" style="line;strokeWidth=1;fillColor=none;align=left;verticalAlign=middle;spacingTop=-1;spacingLeft=3;spacingRight=3;rotatable=0;labelPosition=right;points=[];portConstraint=eastwest;strokeColor=inherit;" vertex="1" parent="zVp6rDQHLnVt3jqaxe6N-167">
          <mxGeometry y="100" width="160" height="8" as="geometry" />
        </mxCell>
        <mxCell id="zVp6rDQHLnVt3jqaxe6N-176" style="edgeStyle=orthogonalEdgeStyle;rounded=0;orthogonalLoop=1;jettySize=auto;html=1;entryX=0.499;entryY=1.083;entryDx=0;entryDy=0;entryPerimeter=0;endArrow=block;endFill=0;" edge="1" parent="zVp6rDQHLnVt3jqaxe6N-177" source="zVp6rDQHLnVt3jqaxe6N-172" target="zVp6rDQHLnVt3jqaxe6N-149">
          <mxGeometry relative="1" as="geometry" />
        </mxCell>
        <mxCell id="zVp6rDQHLnVt3jqaxe6N-172" value="Dvd" style="swimlane;fontStyle=1;align=center;verticalAlign=top;childLayout=stackLayout;horizontal=1;startSize=26;horizontalStack=0;resizeParent=1;resizeParentMax=0;resizeLast=0;collapsible=1;marginBottom=0;whiteSpace=wrap;html=1;" vertex="1" parent="zVp6rDQHLnVt3jqaxe6N-177">
          <mxGeometry x="570" y="247" width="160" height="108" as="geometry" />
        </mxCell>
        <mxCell id="zVp6rDQHLnVt3jqaxe6N-173" value="&lt;div&gt;+ armazenamento: int&lt;/div&gt;&lt;div&gt;+ distribuidora: String&lt;/div&gt;&lt;div&gt;+ duracao: int&lt;/div&gt;&lt;div&gt;+ colorido: boolean&lt;br&gt;&lt;/div&gt;" style="text;strokeColor=none;fillColor=none;align=left;verticalAlign=top;spacingLeft=4;spacingRight=4;overflow=hidden;rotatable=0;points=[[0,0.5],[1,0.5]];portConstraint=eastwest;whiteSpace=wrap;html=1;" vertex="1" parent="zVp6rDQHLnVt3jqaxe6N-172">
          <mxGeometry y="26" width="160" height="74" as="geometry" />
        </mxCell>
        <mxCell id="zVp6rDQHLnVt3jqaxe6N-174" value="" style="line;strokeWidth=1;fillColor=none;align=left;verticalAlign=middle;spacingTop=-1;spacingLeft=3;spacingRight=3;rotatable=0;labelPosition=right;points=[];portConstraint=eastwest;strokeColor=inherit;" vertex="1" parent="zVp6rDQHLnVt3jqaxe6N-172">
          <mxGeometry y="100" width="160" height="8" as="geometry" />
        </mxCell>
        <mxCell id="zVp6rDQHLnVt3jqaxe6N-178" value="Emprestimo" style="swimlane;fontStyle=1;align=center;verticalAlign=top;childLayout=stackLayout;horizontal=1;startSize=26;horizontalStack=0;resizeParent=1;resizeParentMax=0;resizeLast=0;collapsible=1;marginBottom=0;whiteSpace=wrap;html=1;" vertex="1" parent="zVp6rDQHLnVt3jqaxe6N-110">
          <mxGeometry x="900" y="620" width="220" height="108" as="geometry" />
        </mxCell>
        <mxCell id="zVp6rDQHLnVt3jqaxe6N-179" value="&lt;div&gt;+ dataEmprestimo: LocalDate&lt;/div&gt;&lt;div&gt;+ dataDevolucao: LocalDate&lt;/div&gt;&lt;div&gt;# emprestante: Membro&lt;/div&gt;&lt;div&gt;#item: ItemMultimidia&lt;br&gt;&lt;/div&gt;" style="text;strokeColor=none;fillColor=none;align=left;verticalAlign=top;spacingLeft=4;spacingRight=4;overflow=hidden;rotatable=0;points=[[0,0.5],[1,0.5]];portConstraint=eastwest;whiteSpace=wrap;html=1;" vertex="1" parent="zVp6rDQHLnVt3jqaxe6N-178">
          <mxGeometry y="26" width="220" height="74" as="geometry" />
        </mxCell>
        <mxCell id="zVp6rDQHLnVt3jqaxe6N-180" value="" style="line;strokeWidth=1;fillColor=none;align=left;verticalAlign=middle;spacingTop=-1;spacingLeft=3;spacingRight=3;rotatable=0;labelPosition=right;points=[];portConstraint=eastwest;strokeColor=inherit;" vertex="1" parent="zVp6rDQHLnVt3jqaxe6N-178">
          <mxGeometry y="100" width="220" height="8" as="geometry" />
        </mxCell>
        <mxCell id="zVp6rDQHLnVt3jqaxe6N-134" value="Gerente" style="swimlane;fontStyle=1;align=center;verticalAlign=top;childLayout=stackLayout;horizontal=1;startSize=26;horizontalStack=0;resizeParent=1;resizeParentMax=0;resizeLast=0;collapsible=1;marginBottom=0;whiteSpace=wrap;html=1;" vertex="1" parent="zVp6rDQHLnVt3jqaxe6N-110">
          <mxGeometry x="1180" y="210.0000000000001" width="240" height="140" as="geometry" />
        </mxCell>
        <mxCell id="zVp6rDQHLnVt3jqaxe6N-136" value="" style="line;strokeWidth=1;fillColor=none;align=left;verticalAlign=middle;spacingTop=-1;spacingLeft=3;spacingRight=3;rotatable=0;labelPosition=right;points=[];portConstraint=eastwest;strokeColor=inherit;" vertex="1" parent="zVp6rDQHLnVt3jqaxe6N-134">
          <mxGeometry y="26" width="240" height="8" as="geometry" />
        </mxCell>
        <mxCell id="zVp6rDQHLnVt3jqaxe6N-137" value="&lt;div&gt;+ retirarMulta(Membro membro): boolean&lt;/div&gt;&lt;div&gt;+ alterarPrazo(Membro membro): void&lt;br&gt;&lt;/div&gt;" style="text;strokeColor=none;fillColor=none;align=left;verticalAlign=top;spacingLeft=4;spacingRight=4;overflow=hidden;rotatable=0;points=[[0,0.5],[1,0.5]];portConstraint=eastwest;whiteSpace=wrap;html=1;" vertex="1" parent="zVp6rDQHLnVt3jqaxe6N-134">
          <mxGeometry y="34" width="240" height="106" as="geometry" />
        </mxCell>
        <mxCell id="zVp6rDQHLnVt3jqaxe6N-140" value="Administrador" style="swimlane;fontStyle=1;align=center;verticalAlign=top;childLayout=stackLayout;horizontal=1;startSize=26;horizontalStack=0;resizeParent=1;resizeParentMax=0;resizeLast=0;collapsible=1;marginBottom=0;whiteSpace=wrap;html=1;" vertex="1" parent="zVp6rDQHLnVt3jqaxe6N-110">
          <mxGeometry x="889.9999999999999" y="370" width="480.42" height="140" as="geometry" />
        </mxCell>
        <mxCell id="zVp6rDQHLnVt3jqaxe6N-142" value="" style="line;strokeWidth=1;fillColor=none;align=left;verticalAlign=middle;spacingTop=-1;spacingLeft=3;spacingRight=3;rotatable=0;labelPosition=right;points=[];portConstraint=eastwest;strokeColor=inherit;" vertex="1" parent="zVp6rDQHLnVt3jqaxe6N-140">
          <mxGeometry y="26" width="480.42" height="8" as="geometry" />
        </mxCell>
        <mxCell id="zVp6rDQHLnVt3jqaxe6N-143" value="&lt;div&gt;+ cadastrarMembro(Membro membro, Biblioteca lib): boolean&lt;/div&gt;&lt;div&gt;+ aplicarMulta(Membro membro, Localdate dataDeHoje, ItemMultimidia item): boolean&lt;br&gt;&lt;/div&gt;&lt;div&gt;+ reservar(Membro membro, ItemMultimidia item): boolean&lt;/div&gt;&lt;div&gt;+ retirarMulta(Membro membro): boolean&lt;/div&gt;&lt;div&gt;+ prolongarDevolucao(Membro membro, ItemMultimidia item): void&lt;br&gt;&lt;/div&gt;" style="text;strokeColor=none;fillColor=none;align=left;verticalAlign=top;spacingLeft=4;spacingRight=4;overflow=hidden;rotatable=0;points=[[0,0.5],[1,0.5]];portConstraint=eastwest;whiteSpace=wrap;html=1;" vertex="1" parent="zVp6rDQHLnVt3jqaxe6N-140">
          <mxGeometry y="34" width="480.42" height="106" as="geometry" />
        </mxCell>
        <mxCell id="zVp6rDQHLnVt3jqaxe6N-183" value="" style="group" vertex="1" connectable="0" parent="zVp6rDQHLnVt3jqaxe6N-110">
          <mxGeometry x="900" y="750" width="380" height="280" as="geometry" />
        </mxCell>
        <mxCell id="zVp6rDQHLnVt3jqaxe6N-184" value="&lt;div align=&quot;center&quot;&gt;&lt;br&gt;&lt;/div&gt;&lt;div align=&quot;center&quot;&gt;&amp;lt;&amp;lt;interface&amp;gt;&amp;gt;&lt;/div&gt;&lt;div align=&quot;center&quot;&gt;Relatorio&lt;br&gt;&lt;/div&gt;&lt;p style=&quot;margin:0px;margin-top:4px;text-align:center;&quot;&gt;&lt;/p&gt;&lt;hr size=&quot;1&quot;&gt;" style="verticalAlign=top;align=left;overflow=fill;fontSize=12;fontFamily=Helvetica;html=1;whiteSpace=wrap;" vertex="1" parent="zVp6rDQHLnVt3jqaxe6N-183">
          <mxGeometry width="380" height="280" as="geometry" />
        </mxCell>
        <mxCell id="zVp6rDQHLnVt3jqaxe6N-185" value="&lt;div&gt;+ resumoAtividades(LocalDate periodo): String&lt;/div&gt;&lt;div&gt;+ qtdItensEmprestados(): int&lt;/div&gt;&lt;div&gt;+ qtdItensDevolvidos(): int&lt;/div&gt;&lt;div&gt;+ emprestimosRealizados(LocalDate periodo): Emprestimo[]&lt;/div&gt;&lt;div&gt;&lt;br&gt;&lt;/div&gt;&lt;div&gt;+ qtdEmprestimos(): int&lt;/div&gt;&lt;div&gt;+ qtdReservasRealizadas(): int&lt;/div&gt;&lt;div&gt;&lt;br&gt;&lt;/div&gt;&lt;div&gt;+ resumoMultas(): String&lt;/div&gt;&lt;div&gt;&lt;br&gt;&lt;/div&gt;&lt;div&gt;+ disponibilidadeItens(): String&lt;/div&gt;&lt;div&gt;&lt;br&gt;&lt;/div&gt;&lt;div&gt;+ usoPorPerfil(): String&lt;/div&gt;&lt;div&gt;&lt;br&gt;&lt;/div&gt;&lt;div&gt;+ itensPopulares(): String&lt;br&gt;&lt;/div&gt;" style="text;whiteSpace=wrap;html=1;" vertex="1" parent="zVp6rDQHLnVt3jqaxe6N-183">
          <mxGeometry x="5" y="50" width="370" height="220" as="geometry" />
        </mxCell>
        <mxCell id="zVp6rDQHLnVt3jqaxe6N-187" value="Biblioteca" style="swimlane;fontStyle=1;align=center;verticalAlign=top;childLayout=stackLayout;horizontal=1;startSize=26;horizontalStack=0;resizeParent=1;resizeParentMax=0;resizeLast=0;collapsible=1;marginBottom=0;whiteSpace=wrap;html=1;" vertex="1" parent="zVp6rDQHLnVt3jqaxe6N-110">
          <mxGeometry x="1310" y="600" width="380" height="330" as="geometry" />
        </mxCell>
        <mxCell id="zVp6rDQHLnVt3jqaxe6N-188" value="&lt;div&gt;+ nome: String&lt;/div&gt;&lt;div&gt;+ cnpj: String&lt;/div&gt;&lt;div&gt;+ livrosFisicos: LivroFisico[]&lt;br&gt;&lt;/div&gt;&lt;div&gt;+ livrosDigitais: LivroDigital[]&lt;/div&gt;&lt;div&gt;+ cds: Cd[]&lt;/div&gt;&lt;div&gt;+ dvds: Dvd[]&lt;/div&gt;&lt;div&gt;+ relatorio: Relatorio&lt;/div&gt;&lt;div&gt;+ reservas: Reserva[]&lt;/div&gt;&lt;div&gt;+ membros: Membro[]&lt;/div&gt;&lt;div&gt;+ emprestimos: Emprestimo[]&lt;br&gt;&lt;/div&gt;" style="text;strokeColor=none;fillColor=none;align=left;verticalAlign=top;spacingLeft=4;spacingRight=4;overflow=hidden;rotatable=0;points=[[0,0.5],[1,0.5]];portConstraint=eastwest;whiteSpace=wrap;html=1;" vertex="1" parent="zVp6rDQHLnVt3jqaxe6N-187">
          <mxGeometry y="26" width="380" height="184" as="geometry" />
        </mxCell>
        <mxCell id="zVp6rDQHLnVt3jqaxe6N-189" value="" style="line;strokeWidth=1;fillColor=none;align=left;verticalAlign=middle;spacingTop=-1;spacingLeft=3;spacingRight=3;rotatable=0;labelPosition=right;points=[];portConstraint=eastwest;strokeColor=inherit;" vertex="1" parent="zVp6rDQHLnVt3jqaxe6N-187">
          <mxGeometry y="210" width="380" height="8" as="geometry" />
        </mxCell>
        <mxCell id="zVp6rDQHLnVt3jqaxe6N-190" value="&lt;div&gt;+ verificaDisponibilidade(ItemMultimidia item): boolean&lt;/div&gt;&lt;div&gt;# adicionarItem(ItemMultimidia item): boolean&lt;/div&gt;&lt;div&gt;# removerItem(ItemMultimidia item): boolean&lt;/div&gt;&lt;div&gt;# cadastrarMembro(Membro membro): boolean&lt;/div&gt;&lt;div&gt;+ adicionarReserva(Membro membro, ItemMultimidia item): boolean&lt;br&gt;&lt;/div&gt;&lt;div&gt;+ removerReserva(Reserva reserva): boolean&lt;br&gt;&lt;/div&gt;" style="text;strokeColor=none;fillColor=none;align=left;verticalAlign=top;spacingLeft=4;spacingRight=4;overflow=hidden;rotatable=0;points=[[0,0.5],[1,0.5]];portConstraint=eastwest;whiteSpace=wrap;html=1;" vertex="1" parent="zVp6rDQHLnVt3jqaxe6N-187">
          <mxGeometry y="218" width="380" height="112" as="geometry" />
        </mxCell>
      </root>
    </mxGraphModel>
  </diagram>
</mxfile>
